<svg xmlns="http://www.w3.org/2000/svg" fill="currentColor" viewBox="0 0 24 24"><path fill-rule="evenodd" d="M7.502 6h7.128A3.375 3.375 0 0 1 18 9.375v9.375a3 3 0 0 0 3-3V6.108c0-1.505-1.125-2.811-2.664-2.94a49 49 0 0 0-.673-.05A3 3 0 0 0 15 1.5h-1.5a3 3 0 0 0-2.663 1.618q-.338.023-.673.05C8.662 3.295 7.554 4.542 7.502 6M13.5 3A1.5 1.5 0 0 0 12 4.5h4.5A1.5 1.5 0 0 0 15 3z" clip-rule="evenodd"/><path fill-rule="evenodd" d="M3 9.375C3 8.339 3.84 7.5 4.875 7.5h9.75c1.036 0 1.875.84 1.875 1.875v11.25c0 1.035-.84 1.875-1.875 1.875h-9.75A1.875 1.875 0 0 1 3 20.625zm9.586 4.594a.75.75 0 0 0-1.061-.985l-2.773 2.772-1.024-1.023a.75.75 0 1 0-1.06 1.06l1.555 1.556a.75.75 0 0 0 1.06 0z" clip-rule="evenodd"/></svg>